<mxfile host="app.diagrams.net" modified="2022-12-11T12:32:48.548Z" agent="5.0 (X11; Ubuntu)" etag="1JDy37Aq1Dv40vIB5Bf_" version="20.6.1" type="github">
  <diagram id="zjbsmMx9dNUYekVJXI4S" name="Page-1">
    <mxGraphModel dx="68" dy="993" grid="1" gridSize="10" guides="1" tooltips="1" connect="1" arrows="1" fold="1" page="0" pageScale="1" pageWidth="850" pageHeight="1100" math="0" shadow="0">
      <root>
        <mxCell id="0" />
        <mxCell id="1" parent="0" />
        <mxCell id="_Qzaa5entBogjLJZciO9-70" value="&lt;font style=&quot;font-size: 33px;&quot;&gt;Wireframe of the FAQ page&lt;/font&gt;" style="text;html=1;strokeColor=none;fillColor=none;align=center;verticalAlign=middle;whiteSpace=wrap;rounded=0;fontSize=16;" parent="1" vertex="1">
          <mxGeometry x="1140" y="-60" width="320" height="100" as="geometry" />
        </mxCell>
        <mxCell id="n9gxtpOUhnoq1fCZNvoi-1" value="" style="rounded=0;whiteSpace=wrap;html=1;" parent="1" vertex="1">
          <mxGeometry x="960" y="120" width="680" height="210" as="geometry" />
        </mxCell>
        <mxCell id="n9gxtpOUhnoq1fCZNvoi-2" value="&lt;font style=&quot;font-size: 16px;&quot;&gt;Logo&lt;/font&gt;" style="ellipse;whiteSpace=wrap;html=1;aspect=fixed;" parent="1" vertex="1">
          <mxGeometry x="1010" y="160" width="140" height="140" as="geometry" />
        </mxCell>
        <mxCell id="n9gxtpOUhnoq1fCZNvoi-3" value="Moto" style="rounded=0;whiteSpace=wrap;html=1;fontSize=16;" parent="1" vertex="1">
          <mxGeometry x="1200" y="195" width="370" height="60" as="geometry" />
        </mxCell>
        <mxCell id="n9gxtpOUhnoq1fCZNvoi-4" value="" style="rounded=0;whiteSpace=wrap;html=1;fontSize=16;" parent="1" vertex="1">
          <mxGeometry x="960" y="330" width="680" height="50" as="geometry" />
        </mxCell>
        <mxCell id="n9gxtpOUhnoq1fCZNvoi-5" value="Academics" style="rounded=0;whiteSpace=wrap;html=1;fontSize=16;" parent="1" vertex="1">
          <mxGeometry x="1110" y="330" width="120" height="50" as="geometry" />
        </mxCell>
        <mxCell id="n9gxtpOUhnoq1fCZNvoi-6" value="Calendar" style="rounded=0;whiteSpace=wrap;html=1;fontSize=16;" parent="1" vertex="1">
          <mxGeometry x="1240" y="330" width="120" height="50" as="geometry" />
        </mxCell>
        <mxCell id="n9gxtpOUhnoq1fCZNvoi-9" value="space" style="rounded=0;whiteSpace=wrap;html=1;fontSize=16;" parent="1" vertex="1">
          <mxGeometry x="960" y="380" width="680" height="40" as="geometry" />
        </mxCell>
        <mxCell id="n9gxtpOUhnoq1fCZNvoi-10" value="Get to know us" style="rounded=0;whiteSpace=wrap;html=1;fontSize=16;" parent="1" vertex="1">
          <mxGeometry x="1370" y="330" width="120" height="50" as="geometry" />
        </mxCell>
        <mxCell id="n9gxtpOUhnoq1fCZNvoi-11" value="" style="rounded=0;whiteSpace=wrap;html=1;" parent="1" vertex="1">
          <mxGeometry x="960" y="420" width="680" height="1070" as="geometry" />
        </mxCell>
        <mxCell id="n9gxtpOUhnoq1fCZNvoi-13" value="&lt;font style=&quot;font-size: 22px;&quot;&gt;FAQ&lt;/font&gt;" style="rounded=0;whiteSpace=wrap;html=1;" parent="1" vertex="1">
          <mxGeometry x="1220" y="440" width="160" height="60" as="geometry" />
        </mxCell>
        <mxCell id="n9gxtpOUhnoq1fCZNvoi-110" value="&lt;font style=&quot;font-size: 18px;&quot;&gt;Question text ............................?&lt;/font&gt;" style="rounded=0;whiteSpace=wrap;html=1;fontSize=22;" parent="1" vertex="1">
          <mxGeometry x="1010" y="550" width="280" height="40" as="geometry" />
        </mxCell>
        <mxCell id="n9gxtpOUhnoq1fCZNvoi-111" value="&lt;p&gt;Lorem ipsum dolor sit amet, consectetur adipisicing elit, sed do eiusmod tempor incididunt ut labore et dolore magna aliqua. Lorem ipsum dolor sit amet, consectetur adipisicing elit, sed do eiusmod tempor incididunt ut labore et dolore magna aliqua.&lt;/p&gt;" style="text;html=1;strokeColor=none;fillColor=none;spacing=5;spacingTop=-20;whiteSpace=wrap;overflow=hidden;rounded=0;fontSize=18;" parent="1" vertex="1">
          <mxGeometry x="1010" y="600" width="560" height="110" as="geometry" />
        </mxCell>
        <mxCell id="n9gxtpOUhnoq1fCZNvoi-112" value="&lt;font style=&quot;font-size: 18px;&quot;&gt;Question text ............................?&lt;/font&gt;" style="rounded=0;whiteSpace=wrap;html=1;fontSize=22;" parent="1" vertex="1">
          <mxGeometry x="1010" y="730" width="280" height="40" as="geometry" />
        </mxCell>
        <mxCell id="n9gxtpOUhnoq1fCZNvoi-113" value="&lt;p&gt;Lorem ipsum dolor sit amet, consectetur adipisicing elit, sed do eiusmod tempor incididunt ut labore et dolore magna aliqua. Lorem ipsum dolor sit amet, consectetur adipisicing elit, sed do eiusmod tempor incididunt ut labore et dolore magna aliqua.&lt;/p&gt;" style="text;html=1;strokeColor=none;fillColor=none;spacing=5;spacingTop=-20;whiteSpace=wrap;overflow=hidden;rounded=0;fontSize=18;" parent="1" vertex="1">
          <mxGeometry x="1010" y="780" width="560" height="110" as="geometry" />
        </mxCell>
        <mxCell id="n9gxtpOUhnoq1fCZNvoi-114" value="&lt;font style=&quot;font-size: 18px;&quot;&gt;Question text ............................?&lt;/font&gt;" style="rounded=0;whiteSpace=wrap;html=1;fontSize=22;" parent="1" vertex="1">
          <mxGeometry x="1010" y="910" width="280" height="40" as="geometry" />
        </mxCell>
        <mxCell id="n9gxtpOUhnoq1fCZNvoi-115" value="&lt;p&gt;Lorem ipsum dolor sit amet, consectetur adipisicing elit, sed do eiusmod tempor incididunt ut labore et dolore magna aliqua. Lorem ipsum dolor sit amet, consectetur adipisicing elit, sed do eiusmod tempor incididunt ut labore et dolore magna aliqua.&lt;/p&gt;" style="text;html=1;strokeColor=none;fillColor=none;spacing=5;spacingTop=-20;whiteSpace=wrap;overflow=hidden;rounded=0;fontSize=18;" parent="1" vertex="1">
          <mxGeometry x="1010" y="960" width="560" height="110" as="geometry" />
        </mxCell>
        <mxCell id="n9gxtpOUhnoq1fCZNvoi-118" value="&lt;font style=&quot;font-size: 18px;&quot;&gt;Question text ............................?&lt;/font&gt;" style="rounded=0;whiteSpace=wrap;html=1;fontSize=22;" parent="1" vertex="1">
          <mxGeometry x="1010" y="1090" width="280" height="40" as="geometry" />
        </mxCell>
        <mxCell id="n9gxtpOUhnoq1fCZNvoi-119" value="&lt;p&gt;Lorem ipsum dolor sit amet, consectetur adipisicing elit, sed do eiusmod tempor incididunt ut labore et dolore magna aliqua. Lorem ipsum dolor sit amet, consectetur adipisicing elit, sed do eiusmod tempor incididunt ut labore et dolore magna aliqua.&lt;/p&gt;" style="text;html=1;strokeColor=none;fillColor=none;spacing=5;spacingTop=-20;whiteSpace=wrap;overflow=hidden;rounded=0;fontSize=18;" parent="1" vertex="1">
          <mxGeometry x="1010" y="1140" width="560" height="110" as="geometry" />
        </mxCell>
        <mxCell id="n9gxtpOUhnoq1fCZNvoi-120" value="&lt;font style=&quot;font-size: 18px;&quot;&gt;Question text ............................?&lt;/font&gt;" style="rounded=0;whiteSpace=wrap;html=1;fontSize=22;" parent="1" vertex="1">
          <mxGeometry x="1010" y="1270" width="280" height="40" as="geometry" />
        </mxCell>
        <mxCell id="n9gxtpOUhnoq1fCZNvoi-121" value="&lt;p&gt;Lorem ipsum dolor sit amet, consectetur adipisicing elit, sed do eiusmod tempor incididunt ut labore et dolore magna aliqua. Lorem ipsum dolor sit amet, consectetur adipisicing elit, sed do eiusmod tempor incididunt ut labore et dolore magna aliqua.&lt;/p&gt;" style="text;html=1;strokeColor=none;fillColor=none;spacing=5;spacingTop=-20;whiteSpace=wrap;overflow=hidden;rounded=0;fontSize=18;" parent="1" vertex="1">
          <mxGeometry x="1010" y="1320" width="560" height="110" as="geometry" />
        </mxCell>
        <mxCell id="n9gxtpOUhnoq1fCZNvoi-122" value="space" style="rounded=0;whiteSpace=wrap;html=1;fontSize=16;" parent="1" vertex="1">
          <mxGeometry x="960" y="1490" width="680" height="70" as="geometry" />
        </mxCell>
        <mxCell id="n9gxtpOUhnoq1fCZNvoi-123" value="" style="rounded=0;whiteSpace=wrap;html=1;fontSize=16;" parent="1" vertex="1">
          <mxGeometry x="960" y="1560" width="680" height="260" as="geometry" />
        </mxCell>
        <mxCell id="n9gxtpOUhnoq1fCZNvoi-124" value="Contact us" style="rounded=0;whiteSpace=wrap;html=1;fontSize=16;" parent="1" vertex="1">
          <mxGeometry x="990" y="1580" width="110" height="40" as="geometry" />
        </mxCell>
        <mxCell id="n9gxtpOUhnoq1fCZNvoi-125" value="email field" style="rounded=0;whiteSpace=wrap;html=1;fontSize=16;" parent="1" vertex="1">
          <mxGeometry x="990" y="1650" width="180" height="40" as="geometry" />
        </mxCell>
        <mxCell id="n9gxtpOUhnoq1fCZNvoi-126" value="message field" style="rounded=0;whiteSpace=wrap;html=1;fontSize=16;" parent="1" vertex="1">
          <mxGeometry x="990" y="1700" width="180" height="60" as="geometry" />
        </mxCell>
        <mxCell id="n9gxtpOUhnoq1fCZNvoi-127" value="submit" style="rounded=1;whiteSpace=wrap;html=1;fontSize=16;" parent="1" vertex="1">
          <mxGeometry x="990" y="1770" width="100" height="30" as="geometry" />
        </mxCell>
        <mxCell id="n9gxtpOUhnoq1fCZNvoi-128" value="Site-map" style="rounded=0;whiteSpace=wrap;html=1;fontSize=16;" parent="1" vertex="1">
          <mxGeometry x="1240" y="1580" width="110" height="40" as="geometry" />
        </mxCell>
        <mxCell id="n9gxtpOUhnoq1fCZNvoi-129" value="&lt;div align=&quot;left&quot;&gt;- Home&lt;/div&gt;&lt;div align=&quot;left&quot;&gt;- Calendar&lt;/div&gt;&lt;div align=&quot;left&quot;&gt;- Success stories&lt;br&gt;&lt;/div&gt;&lt;div align=&quot;left&quot;&gt;- About&lt;/div&gt;&lt;div align=&quot;left&quot;&gt;- Contact us&lt;/div&gt;&lt;div&gt;&lt;br&gt;&lt;/div&gt;&lt;div&gt;&lt;br&gt;&lt;/div&gt;" style="text;html=1;strokeColor=none;fillColor=none;align=center;verticalAlign=middle;whiteSpace=wrap;rounded=0;fontSize=16;" parent="1" vertex="1">
          <mxGeometry x="1230" y="1650" width="140" height="140" as="geometry" />
        </mxCell>
        <mxCell id="n9gxtpOUhnoq1fCZNvoi-130" value="Logo" style="ellipse;whiteSpace=wrap;html=1;aspect=fixed;fontSize=16;" parent="1" vertex="1">
          <mxGeometry x="1440" y="1580" width="70" height="70" as="geometry" />
        </mxCell>
        <mxCell id="n9gxtpOUhnoq1fCZNvoi-131" value="&lt;font style=&quot;font-size: 18px;&quot;&gt;School Name&lt;/font&gt;" style="text;html=1;strokeColor=none;fillColor=none;align=center;verticalAlign=middle;whiteSpace=wrap;rounded=0;fontSize=16;" parent="1" vertex="1">
          <mxGeometry x="1510" y="1585" width="90" height="60" as="geometry" />
        </mxCell>
        <mxCell id="n9gxtpOUhnoq1fCZNvoi-132" value="&lt;div align=&quot;left&quot;&gt;&lt;font style=&quot;font-size: 16px;&quot;&gt;Phone number&lt;/font&gt;&lt;/div&gt;" style="text;html=1;strokeColor=none;fillColor=none;align=left;verticalAlign=middle;whiteSpace=wrap;rounded=0;fontSize=18;" parent="1" vertex="1">
          <mxGeometry x="1450" y="1660" width="135" height="30" as="geometry" />
        </mxCell>
        <mxCell id="n9gxtpOUhnoq1fCZNvoi-133" value="&lt;div style=&quot;font-size: 16px;&quot; align=&quot;left&quot;&gt;&lt;font style=&quot;font-size: 16px;&quot;&gt;Email address&lt;br&gt;&lt;/font&gt;&lt;/div&gt;" style="text;html=1;strokeColor=none;fillColor=none;align=left;verticalAlign=middle;whiteSpace=wrap;rounded=0;fontSize=18;" parent="1" vertex="1">
          <mxGeometry x="1450" y="1690" width="135" height="30" as="geometry" />
        </mxCell>
        <mxCell id="n9gxtpOUhnoq1fCZNvoi-134" value="&lt;font style=&quot;font-size: 16px;&quot;&gt;Postal code&lt;/font&gt;" style="text;html=1;strokeColor=none;fillColor=none;align=left;verticalAlign=middle;whiteSpace=wrap;rounded=0;fontSize=18;" parent="1" vertex="1">
          <mxGeometry x="1450" y="1720" width="135" height="30" as="geometry" />
        </mxCell>
        <mxCell id="n9gxtpOUhnoq1fCZNvoi-135" value="&lt;div align=&quot;left&quot;&gt;&amp;nbsp;&amp;nbsp;&amp;nbsp;&amp;nbsp;&amp;nbsp;&amp;nbsp; copyright information&lt;br&gt;&lt;/div&gt;" style="rounded=0;whiteSpace=wrap;html=1;fontSize=16;align=left;" parent="1" vertex="1">
          <mxGeometry x="960" y="1820" width="680" height="40" as="geometry" />
        </mxCell>
        <mxCell id="cTxGZNiC2hGIX97C5poa-1" value="Home" style="rounded=0;whiteSpace=wrap;html=1;fontSize=16;" vertex="1" parent="1">
          <mxGeometry x="980" y="330" width="120" height="50" as="geometry" />
        </mxCell>
        <mxCell id="cTxGZNiC2hGIX97C5poa-2" value="Stories" style="rounded=0;whiteSpace=wrap;html=1;fontSize=16;" vertex="1" parent="1">
          <mxGeometry x="1500" y="330" width="120" height="50" as="geometry" />
        </mxCell>
      </root>
    </mxGraphModel>
  </diagram>
</mxfile>
